<svg xmlns="http://www.w3.org/2000/svg" width="100pt" height="100pt" version="1.1" viewBox="0 0 100 100">
 <path d="m90.703 17.188h-81.328c-2.5898 0-4.6875 2.0977-4.6875 4.6875v56.25c0 2.5898 2.0977 4.6875 4.6875 4.6875h81.25c2.5898 0 4.6875-2.0977 4.6875-4.6875v-56.25c0-2.5586-2.0508-4.6445-4.6094-4.6875zm1.5625 12.5h-11.016l9.875-9.2656c0.625 0.21094 1.0508 0.79297 1.0625 1.4531zm-25.078 0 9.9844-9.375h9.5l-9.9844 9.375zm-14.062 0 9.9844-9.375h9.5l-9.9844 9.375zm-14.062 0 9.9844-9.375h9.5l-9.9844 9.375zm-14.062 0 9.9844-9.375h9.5l-9.9844 9.375zm-14.062 0 9.9844-9.375h9.5l-9.9844 9.375zm-1.5625-9.375h7l-8.5625 8.0469v-6.4844c0-0.86328 0.69922-1.5625 1.5625-1.5625zm82.812 57.812c0 0.41406-0.16406 0.8125-0.45703 1.1055s-0.69141 0.45703-1.1055 0.45703h-81.25c-0.86328 0-1.5625-0.69922-1.5625-1.5625v-45.312h84.375zm-29.516-26.844-17.188-9.875c-1.7734-1.0195-3.9531-1.0195-5.7227 0.003906-1.7695 1.0195-2.8633 2.9062-2.8711 4.9492v19.781c-0.011719 2.0469 1.082 3.9414 2.8594 4.9531 0.86328 0.51562 1.8516 0.78516 2.8594 0.78125 1.0117 0 2.0039-0.26953 2.875-0.78125l17.188-9.875c1.7695-1.0312 2.8555-2.9219 2.8555-4.9688s-1.0859-3.9375-2.8555-4.9688zm-1.5625 7.2188-17.188 9.8906c-0.80469 0.46094-1.7969 0.46094-2.5977-0.003906-0.80469-0.46094-1.3047-1.3164-1.3086-2.2461v-19.781c-0.003906-0.92969 0.49219-1.7891 1.2969-2.25 0.80469-0.48047 1.8047-0.48047 2.6094 0l17.188 9.8906c0.80469 0.46094 1.3047 1.3203 1.3047 2.25s-0.5 1.7891-1.3047 2.25zm-34.547-17.875c0 0.41406-0.16406 0.8125-0.45703 1.1055s-0.69141 0.45703-1.1055 0.45703h-10.938c-0.86328 0-1.5625-0.69922-1.5625-1.5625s0.69922-1.5625 1.5625-1.5625h10.938c0.41406 0 0.8125 0.16406 1.1055 0.45703s0.45703 0.69141 0.45703 1.1055zm0 7.8125c0 0.41406-0.16406 0.8125-0.45703 1.1055s-0.69141 0.45703-1.1055 0.45703h-10.938c-0.86328 0-1.5625-0.69922-1.5625-1.5625s0.69922-1.5625 1.5625-1.5625h10.938c0.41406 0 0.8125 0.16406 1.1055 0.45703s0.45703 0.69141 0.45703 1.1055zm0 7.8125c0 0.41406-0.16406 0.8125-0.45703 1.1055s-0.69141 0.45703-1.1055 0.45703h-10.938c-0.86328 0-1.5625-0.69922-1.5625-1.5625s0.69922-1.5625 1.5625-1.5625h10.938c0.41406 0 0.8125 0.16406 1.1055 0.45703s0.45703 0.69141 0.45703 1.1055zm0 7.8125c0 0.41406-0.16406 0.8125-0.45703 1.1055s-0.69141 0.45703-1.1055 0.45703h-10.938c-0.86328 0-1.5625-0.69922-1.5625-1.5625s0.69922-1.5625 1.5625-1.5625h10.938c0.41406 0 0.8125 0.16406 1.1055 0.45703s0.45703 0.69141 0.45703 1.1055zm0 7.8125c0 0.41406-0.16406 0.8125-0.45703 1.1055s-0.69141 0.45703-1.1055 0.45703h-10.938c-0.86328 0-1.5625-0.69922-1.5625-1.5625s0.69922-1.5625 1.5625-1.5625h10.938c0.41406 0 0.8125 0.16406 1.1055 0.45703s0.45703 0.69141 0.45703 1.1055zm48.438-32.812h10.938c0.86328 0 1.5625 0.69922 1.5625 1.5625s-0.69922 1.5625-1.5625 1.5625h-10.938c-0.86328 0-1.5625-0.69922-1.5625-1.5625s0.69922-1.5625 1.5625-1.5625zm12.5 9.375c0 0.41406-0.16406 0.8125-0.45703 1.1055s-0.69141 0.45703-1.1055 0.45703h-10.938c-0.86328 0-1.5625-0.69922-1.5625-1.5625s0.69922-1.5625 1.5625-1.5625h10.938c0.41406 0 0.8125 0.16406 1.1055 0.45703s0.45703 0.69141 0.45703 1.1055zm0 7.8125c0 0.41406-0.16406 0.8125-0.45703 1.1055s-0.69141 0.45703-1.1055 0.45703h-10.938c-0.86328 0-1.5625-0.69922-1.5625-1.5625s0.69922-1.5625 1.5625-1.5625h10.938c0.41406 0 0.8125 0.16406 1.1055 0.45703s0.45703 0.69141 0.45703 1.1055zm0 7.8125c0 0.41406-0.16406 0.8125-0.45703 1.1055s-0.69141 0.45703-1.1055 0.45703h-10.938c-0.86328 0-1.5625-0.69922-1.5625-1.5625s0.69922-1.5625 1.5625-1.5625h10.938c0.41406 0 0.8125 0.16406 1.1055 0.45703s0.45703 0.69141 0.45703 1.1055zm0 7.8125c0 0.41406-0.16406 0.8125-0.45703 1.1055s-0.69141 0.45703-1.1055 0.45703h-10.938c-0.86328 0-1.5625-0.69922-1.5625-1.5625s0.69922-1.5625 1.5625-1.5625h10.938c0.41406 0 0.8125 0.16406 1.1055 0.45703s0.45703 0.69141 0.45703 1.1055z"/>
</svg>
